<svg width="21" height="21" viewBox="0 0 21 21" fill="none" xmlns="http://www.w3.org/2000/svg">
<path d="M8.89907 15.3037L15.9491 8.25371L14.5491 6.8537L8.89907 12.5037L6.04907 9.6537L4.64907 11.0537L8.89907 15.3037ZM10.2991 20.7037C8.91574 20.7037 7.61574 20.4412 6.39907 19.9162C5.18241 19.3912 4.12407 18.6787 3.22407 17.7787C2.32407 16.8787 1.61157 15.8204 1.08657 14.6037C0.561572 13.387 0.299072 12.087 0.299072 10.7037C0.299072 9.32037 0.561572 8.02037 1.08657 6.8037C1.61157 5.58704 2.32407 4.5287 3.22407 3.6287C4.12407 2.7287 5.18241 2.0162 6.39907 1.4912C7.61574 0.966205 8.91574 0.703705 10.2991 0.703705C11.6824 0.703705 12.9824 0.966205 14.1991 1.4912C15.4157 2.0162 16.4741 2.7287 17.3741 3.6287C18.2741 4.5287 18.9866 5.58704 19.5116 6.8037C20.0366 8.02037 20.2991 9.32037 20.2991 10.7037C20.2991 12.087 20.0366 13.387 19.5116 14.6037C18.9866 15.8204 18.2741 16.8787 17.3741 17.7787C16.4741 18.6787 15.4157 19.3912 14.1991 19.9162C12.9824 20.4412 11.6824 20.7037 10.2991 20.7037ZM10.2991 18.7037C12.5324 18.7037 14.4241 17.9287 15.9741 16.3787C17.5241 14.8287 18.2991 12.937 18.2991 10.7037C18.2991 8.47037 17.5241 6.57871 15.9741 5.02871C14.4241 3.47871 12.5324 2.7037 10.2991 2.7037C8.06574 2.7037 6.17407 3.47871 4.62407 5.02871C3.07407 6.57871 2.29907 8.47037 2.29907 10.7037C2.29907 12.937 3.07407 14.8287 4.62407 16.3787C6.17407 17.9287 8.06574 18.7037 10.2991 18.7037Z" fill="#1C1B1F"/>
</svg>
