<svg width="397" height="133" viewBox="0 0 397 133" fill="none" xmlns="http://www.w3.org/2000/svg">
<path d="M278.778 133C274.714 133 271.235 131.553 268.341 128.659C265.447 125.765 264 122.286 264 118.222V14.7778C264 10.7139 265.447 7.23495 268.341 4.34097C271.235 1.44699 274.714 0 278.778 0H382.222C386.286 0 389.765 1.44699 392.659 4.34097C395.553 7.23495 397 10.7139 397 14.7778V118.222C397 122.286 395.553 125.765 392.659 128.659C389.765 131.553 386.286 133 382.222 133H278.778ZM278.778 118.222H382.222V14.7778H278.778V118.222ZM286.167 103.444H374.833L347.125 66.5L324.958 96.0556L308.333 73.8889L286.167 103.444Z" fill="black"/>
</svg>
