<svg width="152" height="133" viewBox="0 0 152 133" fill="none" xmlns="http://www.w3.org/2000/svg">
<path d="M33.7778 133C29.7139 133 26.235 131.553 23.341 128.659C20.447 125.765 19 122.286 19 118.222V14.7778C19 10.7139 20.447 7.23495 23.341 4.34097C26.235 1.44699 29.7139 0 33.7778 0H137.222C141.286 0 144.765 1.44699 147.659 4.34097C150.553 7.23495 152 10.7139 152 14.7778V118.222C152 122.286 150.553 125.765 147.659 128.659C144.765 131.553 141.286 133 137.222 133H33.7778ZM33.7778 118.222H137.222V14.7778H33.7778V118.222ZM41.1667 103.444H129.833L102.125 66.5L79.9583 96.0556L63.3333 73.8889L41.1667 103.444Z" fill="black"/>
</svg>
