<svg width="44" height="44" viewBox="0 0 44 44" fill="none" xmlns="http://www.w3.org/2000/svg">
<path d="M4.88889 44C3.54444 44 2.39352 43.5213 1.43611 42.5639C0.478704 41.6065 0 40.4556 0 39.1111V4.88889C0 3.54444 0.478704 2.39352 1.43611 1.43611C2.39352 0.478704 3.54444 0 4.88889 0H39.1111C40.4556 0 41.6065 0.478704 42.5639 1.43611C43.5213 2.39352 44 3.54444 44 4.88889V39.1111C44 40.4556 43.5213 41.6065 42.5639 42.5639C41.6065 43.5213 40.4556 44 39.1111 44H4.88889ZM4.88889 39.1111H39.1111V4.88889H4.88889V39.1111ZM7.33333 34.2222H36.6667L27.5 22L20.1667 31.7778L14.6667 24.4444L7.33333 34.2222Z" fill="black"/>
</svg>
